<svg width="1080" height="1080" viewBox="0 0 1080 1080" fill="none" xmlns="http://www.w3.org/2000/svg">
  <defs>
    <radialGradient id="bg" cx="0" cy="0" r="1" gradientUnits="userSpaceOnUse" gradientTransform="translate(540 290) rotate(90) scale(780)">
      <stop stop-color="#EAFBFF"/>
      <stop offset="1" stop-color="#7AC9F1"/>
    </radialGradient>
    <linearGradient id="gold" x1="360" y1="260" x2="720" y2="740" gradientUnits="userSpaceOnUse">
      <stop stop-color="#FFD56C"/>
      <stop offset="1" stop-color="#D06A1C"/>
    </linearGradient>
    <linearGradient id="blue" x1="300" y1="210" x2="760" y2="640" gradientUnits="userSpaceOnUse">
      <stop stop-color="#30B2EE"/>
      <stop offset="1" stop-color="#14509A"/>
    </linearGradient>
    <linearGradient id="text" x1="230" y1="760" x2="860" y2="940" gradientUnits="userSpaceOnUse">
      <stop stop-color="#E39A26"/>
      <stop offset="1" stop-color="#7D2E0D"/>
    </linearGradient>
  </defs>
  <rect width="1080" height="1080" rx="140" fill="url(#bg)"/>
  <circle cx="540" cy="470" r="230" fill="#EFF9FF" stroke="url(#blue)" stroke-width="18"/>
  <circle cx="540" cy="470" r="36" fill="url(#gold)"/>
  <path d="M540 240L578 340L540 394L502 340L540 240Z" fill="url(#gold)"/>
  <circle cx="330" cy="335" r="18" fill="#2196D8"/>
  <circle cx="750" cy="335" r="18" fill="#2196D8"/>
  <circle cx="320" cy="575" r="18" fill="#2196D8"/>
  <circle cx="760" cy="575" r="18" fill="#2196D8"/>
  <path d="M346 348L430 404M734 348L650 404M338 566L442 512M742 566L638 512" stroke="#1A72B8" stroke-width="10" stroke-linecap="round"/>
  <path d="M270 700C354 576 448 576 532 700C452 762 356 794 270 700Z" fill="url(#gold)"/>
  <path d="M430 720C490 544 590 544 650 720C572 798 508 798 430 720Z" fill="#FFE39B"/>
  <path d="M548 700C632 576 726 576 810 700C724 794 628 762 548 700Z" fill="url(#gold)"/>
  <path d="M350 778H730" stroke="#C97820" stroke-width="18" stroke-linecap="round"/>
  <text x="540" y="860" text-anchor="middle" fill="url(#text)" font-size="118" font-weight="700" font-family="Georgia, 'Times New Roman', serif">JainAIWorld</text>
  <text x="540" y="932" text-anchor="middle" fill="#8D4F1A" font-size="38" letter-spacing="7" font-family="Arial, sans-serif">LOTUS ORBIT</text>
</svg>
