<svg width="1080" height="1080" viewBox="0 0 1080 1080" fill="none" xmlns="http://www.w3.org/2000/svg">
  <defs>
    <radialGradient id="bg" cx="0" cy="0" r="1" gradientUnits="userSpaceOnUse" gradientTransform="translate(540 300) rotate(90) scale(780)">
      <stop stop-color="#F3FDFF"/>
      <stop offset="1" stop-color="#7DD5F7"/>
    </radialGradient>
    <linearGradient id="blue" x1="300" y1="210" x2="780" y2="660" gradientUnits="userSpaceOnUse">
      <stop stop-color="#3FC7FF"/>
      <stop offset="1" stop-color="#1758BC"/>
    </linearGradient>
    <linearGradient id="gold" x1="320" y1="260" x2="760" y2="740" gradientUnits="userSpaceOnUse">
      <stop stop-color="#FFE07B"/>
      <stop offset="1" stop-color="#D46E1F"/>
    </linearGradient>
    <linearGradient id="text" x1="210" y1="790" x2="870" y2="940" gradientUnits="userSpaceOnUse">
      <stop stop-color="#E39A26"/>
      <stop offset="1" stop-color="#1B4E9A"/>
    </linearGradient>
  </defs>
  <rect width="1080" height="1080" rx="140" fill="url(#bg)"/>
  <circle cx="540" cy="450" r="220" fill="#F1FBFF" stroke="url(#blue)" stroke-width="18"/>
  <circle cx="540" cy="450" r="36" fill="url(#gold)"/>
  <path d="M540 230L578 326L540 380L502 326L540 230Z" fill="url(#gold)"/>
  <circle cx="350" cy="330" r="18" fill="#2EB2E8"/>
  <circle cx="730" cy="330" r="18" fill="#2EB2E8"/>
  <circle cx="330" cy="550" r="18" fill="#2EB2E8"/>
  <circle cx="750" cy="550" r="18" fill="#2EB2E8"/>
  <path d="M368 340L430 382M712 340L650 382M350 544L440 500M730 544L640 500" stroke="#176CB7" stroke-width="10" stroke-linecap="round"/>
  <path d="M280 690C364 572 446 572 530 690C452 770 360 796 280 690Z" fill="url(#gold)"/>
  <path d="M430 716C488 546 592 546 650 716C572 792 508 792 430 716Z" fill="#FFE49C"/>
  <path d="M550 690C634 572 716 572 800 690C720 796 628 770 550 690Z" fill="url(#gold)"/>
  <path d="M350 782H730" stroke="#C97820" stroke-width="18" stroke-linecap="round"/>
  <text x="540" y="860" text-anchor="middle" fill="url(#text)" font-size="110" font-weight="700" font-family="Georgia, 'Times New Roman', serif">JainAIWorld</text>
  <text x="540" y="930" text-anchor="middle" fill="#305E9D" font-size="38" letter-spacing="7" font-family="Arial, sans-serif">NEURAL LOTUS</text>
</svg>
