<svg width="720" height="220" viewBox="0 0 720 220" fill="none" xmlns="http://www.w3.org/2000/svg">
  <defs>
    <linearGradient id="lotusGold" x1="26" y1="18" x2="186" y2="178" gradientUnits="userSpaceOnUse">
      <stop stop-color="#F4C861"/>
      <stop offset="1" stop-color="#D1661D"/>
    </linearGradient>
    <linearGradient id="lotusBlue" x1="30" y1="26" x2="164" y2="148" gradientUnits="userSpaceOnUse">
      <stop stop-color="#2DAAE1"/>
      <stop offset="1" stop-color="#144C92"/>
    </linearGradient>
    <linearGradient id="lotusText" x1="230" y1="70" x2="560" y2="170" gradientUnits="userSpaceOnUse">
      <stop stop-color="#E49A25"/>
      <stop offset="1" stop-color="#7E2F0D"/>
    </linearGradient>
  </defs>
  <rect width="720" height="220" rx="34" fill="#F7F1EA"/>
  <g transform="translate(24 22)">
    <circle cx="86" cy="68" r="48" fill="#EFF9FF" stroke="url(#lotusBlue)" stroke-width="4"/>
    <circle cx="86" cy="68" r="8" fill="url(#lotusGold)"/>
    <path d="M86 20L94 42L86 54L78 42L86 20Z" fill="url(#lotusGold)"/>
    <circle cx="42" cy="40" r="6" fill="#2196D8"/>
    <circle cx="130" cy="40" r="6" fill="#2196D8"/>
    <circle cx="38" cy="90" r="6" fill="#2196D8"/>
    <circle cx="134" cy="90" r="6" fill="#2196D8"/>
    <path d="M46 40L62 52M126 40L110 52M44 88L64 78M128 88L108 78" stroke="#1D72B7" stroke-width="3" stroke-linecap="round"/>
    <path d="M28 122C44 98 62 98 78 122C63 134 45 140 28 122Z" fill="url(#lotusGold)"/>
    <path d="M58 126C70 92 102 92 114 126C96 142 76 142 58 126Z" fill="#F6D98A"/>
    <path d="M94 122C110 98 128 98 144 122C127 140 109 134 94 122Z" fill="url(#lotusGold)"/>
    <path d="M44 142H128" stroke="#C97820" stroke-width="4" stroke-linecap="round"/>
  </g>
  <text x="220" y="95" fill="url(#lotusText)" font-size="50" font-weight="700" font-family="Georgia, 'Times New Roman', serif">JainAIWorld</text>
  <text x="220" y="132" fill="#7D5A42" font-size="17" letter-spacing="4" font-family="Arial, sans-serif">LOTUS ORBIT MARK</text>
  <text x="220" y="162" fill="#8E6A50" font-size="18" font-family="Arial, sans-serif">A cleaner devotional lotus with modern orbit lines for the AI theme.</text>
</svg>
